#!OML:ASF C:\Vicon Data\Big\jianyuan-13\jianyuan\Session 1\Capture.male.ASF
:FULLY-SPECIFIED
:DEGREES
167
root -9.103907 17.493439 -12.846335 8.766605 -6.865447 4.048497
lowerback -12.074603 1.462631 -5.870702 
upperback 2.321365 3.022473 -1.777110 
thorax 9.094169 1.197520 1.993134 
lowerneck -3.810084 -3.004975 2.189933 
upperneck 24.117049 -4.105479 -1.356049 
head 7.982590 -1.864388 -1.140511 
rclavicle 0.000000 0.000000 
rhumerus -30.645578 -11.880003 -86.331371 
rradius 33.407867 
rwrist 28.070204 
rhand -17.915065 -16.982653 
rfingers 0.000000 
rthumb 8.352333 -46.797573 
lclavicle 0.000000 0.000000 
lhumerus -64.121182 50.221964 36.444985 
lradius 20.903078 
lwrist -78.466022 
lhand -22.940764 2.760640 
lfingers 0.000000 
lthumb 3.500298 32.711678 
rfemur -25.081470 -6.730123 15.358362 
rtibia 69.351154 
rfoot -4.617931 -4.411530 
rtoes -32.556513 
lfemur -20.294789 -3.752591 -28.936586 
ltibia 18.831239 
lfoot -5.215365 -4.226060 
ltoes -20.241813 
168
root -9.100411 17.492517 -12.801692 8.667700 -6.752500 4.024220
lowerback -11.963142 1.422809 -5.762025 
upperback 2.377166 2.946964 -1.776565 
thorax 9.100944 1.166052 1.915456 
lowerneck -3.793376 -2.980799 2.177115 
upperneck 24.083320 -4.074610 -1.334848 
head 7.969618 -1.849489 -1.128152 
rclavicle 0.000000 0.000000 
rhumerus -30.736453 -12.140792 -86.206953 
rradius 33.260301 
rwrist 28.272714 
rhand -17.893852 -17.138658 
rfingers 0.000000 
rthumb 8.372768 -46.952709 
lclavicle 0.000000 0.000000 
lhumerus -63.459803 50.518175 37.148336 
lradius 20.882211 
lwrist -78.509224 
lhand -22.884157 2.778790 
lfingers 0.000000 
lthumb 3.554950 32.728874 
rfemur -25.492730 -6.446449 15.227582 
rtibia 69.558567 
rfoot -4.965421 -4.792604 
rtoes -31.431643 
lfemur -20.036800 -3.896086 -28.943706 
ltibia 18.890682 
lfoot -5.435413 -4.203028 
ltoes -20.558495 
169
root -9.099594 17.491498 -12.764045 8.590264 -6.559357 4.070767
lowerback -11.829237 1.322595 -5.780861 
upperback 2.423400 2.805418 -1.745493 
thorax 9.081552 1.095936 1.928493 
lowerneck -3.746108 -2.927623 2.094254 
upperneck 24.027386 -3.989556 -1.333804 
head 7.945505 -1.817136 -1.105581 
rclavicle 0.000000 0.000000 
rhumerus -30.838098 -12.390443 -85.992478 
rradius 33.175850 
rwrist 28.521061 
rhand -17.805938 -17.264458 
rfingers 0.000000 
rthumb 8.457595 -47.075090 
lclavicle 0.000000 0.000000 
lhumerus -62.702484 50.763130 38.073051 
lradius 20.853576 
lwrist -78.366818 
lhand -22.928399 2.834522 
lfingers 0.000000 
lthumb 3.512224 32.785362 
rfemur -25.921479 -6.132495 15.060063 
rtibia 69.739280 
rfoot -5.382517 -5.162590 
rtoes -29.840979 
lfemur -19.826011 -3.977923 -29.023352 
ltibia 18.941911 
lfoot -5.533300 -4.304124 
ltoes -20.591948 
170
root -9.097307 17.491550 -12.722872 8.523955 -6.400417 4.118898
lowerback -11.709886 1.251413 -5.776277 
upperback 2.446007 2.701381 -1.742455 
thorax 9.044502 1.046910 1.905965 
lowerneck -3.726418 -2.903064 2.002855 
upperneck 24.026985 -3.957577 -1.273599 
head 7.945846 -1.804541 -1.067531 
rclavicle 0.000000 0.000000 
rhumerus -30.963328 -12.650936 -85.810136 
rradius 33.050342 
rwrist 28.699498 
rhand -17.872459 -17.385100 
rfingers 0.000000 
rthumb 8.393386 -47.198382 
lclavicle 0.000000 0.000000 
lhumerus -62.055888 51.045308 38.811834 
lradius 20.850415 
lwrist -78.303031 
lhand -22.891137 2.763109 
lfingers 0.000000 
lthumb 3.548247 32.713351 
rfemur -26.373101 -5.871785 14.894489 
rtibia 69.870766 
rfoot -5.738209 -5.513389 
rtoes -29.301603 
lfemur -19.606240 -4.082626 -29.111823 
ltibia 18.979840 
lfoot -5.662520 -4.361855 
ltoes -20.736341 
171
root -9.094122 17.489819 -12.680452 8.460786 -6.260759 4.121132
lowerback -11.637596 1.191885 -5.708332 
upperback 2.490426 2.606711 -1.721891 
thorax 9.059534 1.003234 1.870537 
lowerneck -3.667768 -2.887807 1.990348 
upperneck 23.977084 -3.920559 -1.330516 
head 7.917832 -1.793957 -1.079469 
rclavicle 0.000000 0.000000 
rhumerus -31.001800 -12.895248 -85.622701 
rradius 32.788869 
rwrist 28.730661 
rhand -18.018682 -17.452460 
rfingers 0.000000 
rthumb 8.252305 -47.271281 
lclavicle 0.000000 0.000000 
lhumerus -61.384980 51.322654 39.601935 
lradius 20.833377 
lwrist -78.339155 
lhand -22.945574 2.749296 
lfingers 0.000000 
lthumb 3.495671 32.700369 
rfemur -26.817111 -5.555624 14.762374 
rtibia 69.969194 
rfoot -6.079720 -5.812773 
rtoes -29.026016 
lfemur -19.386377 -4.072591 -29.175217 
ltibia 19.000955 
lfoot -5.748805 -4.495195 
ltoes -20.918709 
172
root -9.092105 17.488478 -12.638181 8.413099 -6.082950 4.122823
lowerback -11.548445 1.142287 -5.660558 
upperback 2.527695 2.527912 -1.715057 
thorax 9.055518 0.967276 1.834111 
lowerneck -3.672958 -2.899984 2.013019 
upperneck 23.974305 -3.933685 -1.360075 
head 7.916390 -1.800887 -1.094066 
rclavicle 0.000000 0.000000 
rhumerus -31.078328 -13.137137 -85.446163 
rradius 32.565653 
rwrist 28.696434 
rhand -18.061018 -17.479206 
rfingers 0.000000 
rthumb 8.211479 -47.299593 
lclavicle 0.000000 0.000000 
lhumerus -60.395797 51.462264 40.709402 
lradius 20.825309 
lwrist -78.330769 
lhand -22.892932 2.756840 
lfingers 0.000000 
lthumb 3.546504 32.707074 
rfemur -27.271634 -5.217408 14.625382 
rtibia 70.010285 
rfoot -6.414632 -6.127183 
rtoes -28.364304 
lfemur -19.183529 -4.073002 -29.234487 
ltibia 19.029233 
lfoot -5.823493 -4.632823 
ltoes -21.114936 
173
root -9.088524 17.488055 -12.595830 8.364655 -5.870414 4.145788
lowerback -11.473148 1.069975 -5.623403 
upperback 2.577424 2.421398 -1.699550 
thorax 9.074273 0.916213 1.808445 
lowerneck -3.670856 -2.898863 2.027973 
upperneck 23.947747 -3.926335 -1.393539 
head 7.906018 -1.799421 -1.106597 
rclavicle 0.000000 0.000000 
rhumerus -31.123003 -13.413065 -85.247989 
rradius 32.325954 
rwrist 28.826452 
rhand -18.118941 -17.382182 
rfingers 0.000000 
rthumb 8.155529 -47.204830 
lclavicle 0.000000 0.000000 
lhumerus -59.480011 51.668341 41.750103 
lradius 20.798949 
lwrist -78.475905 
lhand -22.992816 2.740517 
lfingers 0.000000 
lthumb 3.450052 32.692317 
rfemur -27.718476 -4.807941 14.449077 
rtibia 70.008094 
rfoot -6.808346 -6.439941 
rtoes -27.781503 
lfemur -18.989879 -4.191247 -29.298004 
ltibia 19.088665 
lfoot -5.925411 -4.693696 
ltoes -21.064779 
174
root -9.085386 17.489043 -12.551951 8.293920 -5.584972 4.170755
lowerback -11.375867 0.951366 -5.577421 
upperback 2.620479 2.249705 -1.683569 
thorax 9.077628 0.834748 1.765767 
lowerneck -3.658979 -2.870085 1.995666 
upperneck 23.947827 -3.884769 -1.384265 
head 7.905533 -1.781823 -1.094775 
rclavicle 0.000000 0.000000 
rhumerus -31.213307 -13.796308 -85.017561 
rradius 32.102953 
rwrist 29.194633 
rhand -18.090767 -17.294390 
rfingers 0.000000 
rthumb 8.182705 -47.115962 
lclavicle 0.000000 0.000000 
lhumerus -58.687128 51.887941 42.662086 
lradius 20.785614 
lwrist -78.607949 
lhand -23.054138 2.750333 
lfingers 0.000000 
lthumb 3.390822 32.703101 
rfemur -28.081127 -4.515450 14.285857 
rtibia 69.952856 
rfoot -7.190791 -6.744468 
rtoes -27.446621 
lfemur -18.771299 -4.445458 -29.329840 
ltibia 19.178058 
lfoot -6.061342 -4.764513 
ltoes -20.859236 
175
root -9.083700 17.487297 -12.508409 8.230157 -5.341065 4.194530
lowerback -11.252796 0.856425 -5.543095 
upperback 2.636465 2.108161 -1.669343 
thorax 9.033636 0.769059 1.732578 
lowerneck -3.612256 -2.851797 1.963962 
upperneck 23.950129 -3.852845 -1.392546 
head 7.898848 -1.770264 -1.088905 
rclavicle 0.000000 0.000000 
rhumerus -31.346298 -14.134812 -84.787430 
rradius 31.929009 
rwrist 29.462342 
rhand -18.079117 -17.319776 
rfingers 0.000000 
rthumb 8.193979 -47.140856 
lclavicle 0.000000 0.000000 
lhumerus -57.473257 51.776777 44.133755 
lradius 20.825017 
lwrist -78.290065 
lhand -23.039649 2.762938 
lfingers 0.000000 
lthumb 3.404831 32.715504 
rfemur -28.443449 -4.241248 14.131261 
rtibia 69.852404 
rfoot -7.604430 -7.022837 
rtoes -27.522171 
lfemur -18.575901 -4.579937 -29.386199 
ltibia 19.287531 
lfoot -6.197593 -4.878479 
ltoes -20.818765 
